<svg xmlns="http://www.w3.org/2000/svg" width="512" height="512" viewBox="0 0 512 512">
  <defs>
    <radialGradient id="bodyGlow" cx="50%" cy="48%" r="55%">
      <stop offset="0%" stop-color="#7cffdf" stop-opacity=".95"/>
      <stop offset="45%" stop-color="#38bdf8" stop-opacity=".45"/>
      <stop offset="100%" stop-color="#7c3aed" stop-opacity="0"/>
    </radialGradient>

    <linearGradient id="barrelGrad" x1="0" y1="0" x2="1" y2="1">
      <stop offset="0%" stop-color="#e0f2fe"/>
      <stop offset="30%" stop-color="#7cffdf"/>
      <stop offset="68%" stop-color="#38bdf8"/>
      <stop offset="100%" stop-color="#2563eb"/>
    </linearGradient>

    <linearGradient id="bodyGrad" x1="0" y1="0" x2="1" y2="1">
      <stop offset="0%" stop-color="#fde047"/>
      <stop offset="28%" stop-color="#f472b6"/>
      <stop offset="68%" stop-color="#8b5cf6"/>
      <stop offset="100%" stop-color="#312e81"/>
    </linearGradient>

    <linearGradient id="finGrad" x1="0" y1="0" x2="1" y2="1">
      <stop offset="0%" stop-color="#fef08a"/>
      <stop offset="45%" stop-color="#fb7185"/>
      <stop offset="100%" stop-color="#c084fc"/>
    </linearGradient>

    <radialGradient id="bubbleGrad" cx="30%" cy="25%" r="75%">
      <stop offset="0%" stop-color="#ffffff" stop-opacity=".95"/>
      <stop offset="28%" stop-color="#e0f2fe" stop-opacity=".75"/>
      <stop offset="62%" stop-color="#7cffdf" stop-opacity=".42"/>
      <stop offset="100%" stop-color="#38bdf8" stop-opacity=".22"/>
    </radialGradient>

    <filter id="softGlow" x="-70%" y="-70%" width="240%" height="240%">
      <feGaussianBlur stdDeviation="13" result="blur"/>
      <feColorMatrix in="blur" type="matrix" values="0 0 0 0 .49 0 0 0 0 1 0 0 0 0 .87 0 0 0 .88 0"/>
      <feMerge>
        <feMergeNode/>
        <feMergeNode in="SourceGraphic"/>
      </feMerge>
    </filter>

    <filter id="pinkGlow" x="-70%" y="-70%" width="240%" height="240%">
      <feGaussianBlur stdDeviation="11" result="blur"/>
      <feColorMatrix in="blur" type="matrix" values="0 0 0 0 .96 0 0 0 0 .44 0 0 0 0 .71 0 0 0 .8 0"/>
      <feMerge>
        <feMergeNode/>
        <feMergeNode in="SourceGraphic"/>
      </feMerge>
    </filter>

    <filter id="shadow" x="-40%" y="-40%" width="180%" height="180%">
      <feDropShadow dx="0" dy="12" stdDeviation="12" flood-color="#020617" flood-opacity=".5"/>
    </filter>

    <style>
      .num {
        font-family: "Nunito", "Arial Rounded MT Bold", Arial, sans-serif;
        font-weight: 900;
        fill: #0f172a;
        text-anchor: middle;
        dominant-baseline: central;
      }
    </style>
  </defs>

  <g transform="translate(256 275)" filter="url(#shadow)">
    <circle cx="0" cy="-30" r="198" fill="url(#bodyGlow)" opacity=".58"/>

    <path d="M-34 54 L-136 138 L-18 116 Z" fill="url(#finGrad)" stroke="rgba(255,255,255,.35)" stroke-width="4" filter="url(#pinkGlow)"/>
    <path d="M34 54 L136 138 L18 116 Z" fill="url(#finGrad)" stroke="rgba(255,255,255,.35)" stroke-width="4" filter="url(#pinkGlow)"/>

    <ellipse cx="0" cy="136" rx="112" ry="26" fill="#020617" opacity=".35"/>

    <path
      d="M0 -210
         C 62 -154 94 -76 76 22
         C 65 81 34 124 0 152
         C -34 124 -65 81 -76 22
         C -94 -76 -62 -154 0 -210 Z"
      fill="url(#bodyGrad)"
      stroke="rgba(255,255,255,.45)"
      stroke-width="5"
      filter="url(#pinkGlow)"
    />

    <g transform="translate(0 -118)">
      <ellipse cx="0" cy="0" rx="56" ry="42" fill="#0f172a" opacity=".88" stroke="#7cffdf" stroke-width="7" filter="url(#softGlow)"/>
      <ellipse cx="0" cy="-2" rx="36" ry="25" fill="url(#barrelGrad)" opacity=".45"/>
      <circle cx="-14" cy="-12" r="7" fill="#fff" opacity=".45"/>
    </g>

    <path d="M-44 -111 C-32 -36 -23 31 0 92 C23 31 32 -36 44 -111"
          fill="rgba(15,23,42,.35)" stroke="rgba(124,255,223,.38)" stroke-width="3"/>

    <path d="M-22 -172 C-48 -106 -49 -24 -34 42 C-26 80 -13 106 -4 121"
          fill="none" stroke="#ffffff" stroke-width="8" stroke-linecap="round" opacity=".22"/>

    <g transform="translate(0 36)" filter="url(#softGlow)">
      <circle r="49" fill="url(#bubbleGrad)" stroke="rgba(255,255,255,.62)" stroke-width="4"/>
      <circle cx="-17" cy="-18" r="12" fill="#fff" opacity=".55"/>
      <text x="0" y="3" class="num" font-size="42">×</text>
    </g>

    <g transform="translate(0 150)" filter="url(#pinkGlow)">
      <path d="M-28 -8 C-18 44 -7 66 0 82 C7 66 18 44 28 -8 Z" fill="#fef08a" opacity=".9"/>
      <path d="M-14 -4 C-7 31 -3 45 0 56 C3 45 7 31 14 -4 Z" fill="#fb7185"/>
    </g>

    <circle cx="-58" cy="-12" r="11" fill="#7cffdf" opacity=".85"/>
    <circle cx="58" cy="-12" r="11" fill="#7cffdf" opacity=".85"/>
    <circle cx="-43" cy="74" r="8" fill="#fde047" opacity=".9"/>
    <circle cx="43" cy="74" r="8" fill="#fde047" opacity=".9"/>
  </g>
</svg>
